# xmcd CD database file
#
# Track frame offsets:
#	150
#	18197
#	30113
#	48901
#	71341
#	87121
#	108364
#	126689
#	143202
#	161818
#	175105
#	193411
#
# Disc length: 2850 seconds
#
# Revision: 1
# Processed by: cddbd v1.5.2PL0 Copyright (c) Steve Scherf et al.
# Submitted via: CDex 1.70beta2
#
DISCID=9d0b200c
DTITLE=Plinio Oliveira - Plinio Oliveira 10 Anos
DYEAR=2006
DGENRE=Meditative
TTITLE0=Só Você
TTITLE1=Mais Amor
TTITLE2=Oração Cabocla
TTITLE3=Livre Pra Voar
TTITLE4=Anjo
TTITLE5=Transcender
TTITLE6=Olho Você
TTITLE7=Um Coração
TTITLE8=Sopro Divino
TTITLE9=Alma Aventureira
TTITLE10=É Preciso Amar as Pessoas Como Elas São
TTITLE11=Mundo Normal
EXTD=YEAR: 2006
EXTT0=
EXTT1=
EXTT2=
EXTT3=
EXTT4=
EXTT5=
EXTT6=
EXTT7=
EXTT8=
EXTT9=
EXTT10=
EXTT11=
PLAYORDER=
